<svg xmlns="http://www.w3.org/2000/svg" viewBox="0 0 427.27 320.45">
    <g>
        <polygon fill="white"
                 points="17.8 17.8 17.8 213.63 270.55 213.63 364.96 311.62 364.96 213.63 409.46 213.63 409.46 17.8 17.8 17.8"/>
        <g fill="black">
            <rect x="409.46" y="17.8" width="17.8" height="195.83"/>
            <rect x="17.8" width="391.66" height="17.8"/>
            <polygon class="cls-2"
                     points="373.86 231.44 373.86 320.45 356.06 320.45 356.06 302.65 356.06 284.84 356.06 231.44 373.86 231.44"/>
            <polygon class="cls-2"
                     points="373.86 231.44 356.06 231.44 356.06 213.63 409.46 213.63 409.46 231.44 373.86 231.44"/>
            <rect x="338.25" y="284.84" width="17.8" height="17.8"/>
            <rect x="320.45" y="267.04" width="17.8" height="17.8"/>
            <rect x="302.65" y="249.24" width="17.8" height="17.8"/>
            <rect x="284.84" y="231.44" width="17.8" height="17.8"/>
            <rect x="17.8" y="213.63" width="267.04" height="17.8"/>
            <rect y="17.8" width="17.8" height="195.83"/>
        </g>
    </g>
</svg>
